PathFileType	4	(X/Y/Z)	C:\Users\Basilio\Documents\Thesis Gigler\squatting_fais\c3dfiles\019\SJ_pre4\markers_experimental.trc
DataRate	CameraRate	NumFrames	NumMarkers	Units	OrigDataRate	OrigDataStartFrame	OrigNumFrames
200.000000	200.000000	4	59	mm	200.000000	490	1308
Frame#	Time	LBHD			RBHD			C7			T10			CLAV			LSHO			LUUPA			LMUPA			LDUPA			LLEP			LMEP			LRAD			LUL			LRFIN			RSHO			RUPA1			RMUPA			RDUPA			RLEP			RMEP			RRAD			RUL			RUFIN			LASI			USACR			LSACR			RSACR			LTHI1			LTHI2			LTHI3			LTHI4			LLFC			LTIB1			LTIB2			LTIB3			LTIB4			LLMAL			LMMAL			LHEE			LMT1			LMT2			LMT5			RTHI			RTHI2			RTHI3			RTHI4			RLFC			RTIB1			RTIB2			RTIB3			RTIB4			RLMAL			RMMAL			RHEE			RMT1			RMT2			RMT5			FHD			RASI			
		X1	Y1	Z1	X2	Y2	Z2	X3	Y3	Z3	X4	Y4	Z4	X5	Y5	Z5	X6	Y6	Z6	X7	Y7	Z7	X8	Y8	Z8	X9	Y9	Z9	X10	Y10	Z10	X11	Y11	Z11	X12	Y12	Z12	X13	Y13	Z13	X14	Y14	Z14	X15	Y15	Z15	X16	Y16	Z16	X17	Y17	Z17	X18	Y18	Z18	X19	Y19	Z19	X20	Y20	Z20	X21	Y21	Z21	X22	Y22	Z22	X23	Y23	Z23	X24	Y24	Z24	X25	Y25	Z25	X26	Y26	Z26	X27	Y27	Z27	X28	Y28	Z28	X29	Y29	Z29	X30	Y30	Z30	X31	Y31	Z31	X32	Y32	Z32	X33	Y33	Z33	X34	Y34	Z34	X35	Y35	Z35	X36	Y36	Z36	X37	Y37	Z37	X38	Y38	Z38	X39	Y39	Z39	X40	Y40	Z40	X41	Y41	Z41	X42	Y42	Z42	X43	Y43	Z43	X44	Y44	Z44	X45	Y45	Z45	X46	Y46	Z46	X47	Y47	Z47	X48	Y48	Z48	X49	Y49	Z49	X50	Y50	Z50	X51	Y51	Z51	X52	Y52	Z52	X53	Y53	Z53	X54	Y54	Z54	X55	Y55	Z55	X56	Y56	Z56	X57	Y57	Z57	X58	Y58	Z58	X59	Y59	Z59	

491	2.45	-27.23524856567384	951.2090454101565	-1019.694519042969	-28.08255195617676	949.1831054687502	-879.8164062500002	-123.7724609375	850.6984863281252	-944.5302734375002	-377.3042907714844	720.4268188476564	-946.0012207031252	-62.44752502441408	711.9720458984376	-944.2376708984377	-75.44524383544923	784.488220214844	-1096.252319335938	-190.1466064453125	727.3340454101564	-1208.701782226563	-224.5929565429688	696.6470947265626	-1192.67626953125	-243.5410308837891	712.4688110351564	-1246.838989257813	-304.0735778808594	723.1051635742189	-1305.941284179688	-350.8934326171876	776.5422363281252	-1285.392333984375	-475.532684326172	594.8340454101564	-1166.344604492188	-464.6802062988282	551.8015136718751	-1217.93701171875	-445.5887145996095	571.6691284179689	-1122.443725585938	-64.69687652587892	782.3938598632815	-802.8460693359377	-183.5968780517578	790.652526855469	-658.0055541992189	-198.0024414062501	739.2366333007814	-651.6547241210939	-231.0477294921876	766.3364868164064	-608.5444335937501	-295.2363281250001	732.5753173828126	-569.9125366210939	-331.4527893066407	788.4766235351565	-584.3818969726564	-465.6795043945314	617.7313232421876	-733.2672729492189	-450.9773864746095	564.5446166992189	-692.1876220703126	-442.2861633300782	583.8986816406251	-785.0554809570315	-429.8245849609376	527.0971679687501	-1049.279296875	-508.8632202148439	644.0833129882814	-950.0529785156252	-537.5183105468751	624.6159667968751	-975.2071533203127	-536.5041503906251	624.5690307617189	-919.6544189453127	-413.2031860351564	444.2278137207032	-1184.521850585938	-335.9106445312501	473.6734924316407	-1208.422119140625	-321.4433593750001	515.1229858398439	-1188.724609375	-286.2511901855469	440.2071838378907	-1223.249267578125	-204.4561767578126	419.5450134277345	-1228.385131835938	-170.3785552978516	286.8738098144532	-1200.132080078125	-248.5238952636719	266.9049072265626	-1238.407104492188	-212.7586212158204	252.652572631836	-1218.962158203125	-243.8243255615235	185.1241455078125	-1174.955200195313	-363.6311950683594	95.47188568115236	-1179.943115234375	-327.5237121582032	97.23134613037112	-1099.850952148438	-413.9435119628907	44.19747924804688	-1114.120849609375	-206.5488739013672	56.90868759155275	-1154.420166015625	-215.0552673339844	58.68375396728517	-1194.116821289063	-266.8036804199219	34.99448013305665	-1236.093139648438	-467.4668579101564	488.1778869628907	-731.1802368164064	-410.2384643554689	512.2693481445314	-723.2277832031251	-401.6843261718751	530.0501708984376	-754.5113525390626	-344.5401611328126	483.9720458984376	-687.7409667968751	-205.0182495117188	425.8784179687501	-661.9565429687501	-186.7842712402344	258.6057739257813	-707.7677001953126	-280.3140563964844	208.5632934570313	-668.7919921875001	-241.6514434814454	189.2019348144532	-694.2781372070314	-254.9644165039063	150.1356658935547	-734.1846923828126	-354.8141174316407	97.73963165283206	-706.7277221679689	-316.0999145507813	93.73428344726564	-779.0069580078127	-401.9613037109376	44.36435699462891	-770.8908691406252	-200.4204254150391	53.3862648010254	-713.8664550781251	-213.6364898681641	61.22164916992189	-670.0873413085939	-267.1683654785157	41.03197479248048	-634.6186523437501	109.1442642211914	931.7984008789065	-879.7134399414065	nan	nan	nan	
492	2.455	-27.24346923828126	951.0083618164065	-1019.626525878906	-28.07400131225587	948.9859619140627	-879.6968994140627	-124.3055877685547	850.6013793945315	-944.9835205078127	-377.3882141113282	720.2935791015626	-945.9356689453127	-62.44906997680665	711.8313598632814	-944.1363525390627	-75.35767364501955	784.3890380859377	-1096.057861328125	-190.1308288574219	727.3264770507814	-1208.59521484375	-224.5330657958985	696.5710449218751	-1192.649291992188	-243.4623107910157	712.4235229492189	-1246.804321289063	-304.0212097167969	723.0919189453126	-1305.924560546875	-350.8632202148438	776.500427246094	-1285.331176757813	-475.3690185546876	594.6830444335939	-1166.465942382813	-464.5270996093751	551.6548461914064	-1217.952270507813	-445.5051574707032	571.5621337890626	-1122.3916015625	-64.90686035156251	782.6519775390627	-802.5855102539065	-183.697250366211	790.5053710937502	-657.9647216796876	-198.0519714355469	739.0220336914064	-651.5851440429689	-231.0496215820313	766.1622314453126	-608.4884033203126	-295.4175109863282	732.4930419921876	-569.9280395507814	-331.4411621093751	788.1934814453127	-584.3248901367189	-465.6865234375001	617.5983886718751	-733.2212524414064	-451.0318298339845	564.2830200195314	-692.2597656250001	-442.3244934082032	583.7091064453126	-785.0694580078127	-429.7404785156251	527.0241088867189	-1049.161254882813	-508.9745483398439	643.9498901367189	-949.9553222656252	-537.6848144531251	624.5412597656251	-975.2224731445315	-536.6296997070314	624.3836669921876	-919.667663574219	-413.1058959960939	444.1446228027345	-1184.528076171875	-335.8358154296876	473.620819091797	-1208.412231445313	-321.5018920898438	515.0374145507814	-1188.821044921875	-286.2098388671876	440.1321716308595	-1223.14892578125	-204.4654235839844	419.5391845703126	-1228.262451171875	-170.2733459472657	286.8313598632813	-1200.101318359375	-248.4639282226563	266.8861389160157	-1238.345336914063	-212.6762390136719	252.6963806152344	-1218.8828125	-243.8165283203126	185.0794982910157	-1174.936767578125	-363.5970764160157	95.40882873535158	-1179.91455078125	-327.4573974609376	97.14773559570315	-1099.859985351563	-414.0350036621095	44.27467346191407	-1114.086791992188	-206.5209045410157	56.87239837646486	-1154.334716796875	-215.0661315917969	58.6861915588379	-1194.122802734375	-266.7747192382813	34.9814567565918	-1236.078735351563	-467.6507263183595	488.0852661132814	-731.1759643554689	-410.2482910156251	512.1475830078126	-723.2268676757814	-401.7438049316407	529.8982543945314	-754.5681762695314	-344.5871582031251	483.8555603027345	-687.7830810546876	-205.0538787841797	425.9236755371095	-661.9949951171876	-186.7935333251953	258.6236572265626	-707.7644653320314	-280.4138793945313	208.5935058593751	-668.7933959960939	-241.5541381835938	189.1583862304688	-694.2855224609376	-255.0142669677735	150.2064056396485	-733.9939575195314	-354.8171997070313	97.74314880371097	-706.7177734375001	-316.1284179687501	93.72556304931642	-779.021423339844	-402.0701293945314	44.50205612182618	-770.8300781250002	-200.3399963378907	53.38629531860353	-713.8707885742189	-213.6490478515626	61.21059799194337	-670.0872802734376	-267.2110290527344	41.04361724853516	-634.5975341796876	109.074333190918	931.6900634765627	-879.6026000976565	nan	nan	nan	
493	2.46	-27.24461364746094	950.8781738281252	-1019.426940917969	-28.11991882324219	948.8701782226565	-879.5908813476565	-123.9963302612305	850.3164062500002	-944.6209106445315	-377.4627685546876	720.1422729492189	-945.8397216796877	-62.56287765502931	711.7344360351564	-944.0535278320315	-75.30358886718751	784.4158935546877	-1096.071899414063	-190.1544647216797	727.2810058593751	-1208.515747070313	-224.5260467529297	696.5129394531251	-1192.52880859375	-243.5284576416016	712.3331298828126	-1246.74072265625	-303.9555053710938	723.0462036132814	-1305.837646484375	-350.8920288085938	776.5168457031252	-1285.264282226563	-475.5238342285157	594.6455688476564	-1166.276489257813	-464.4439086914064	551.6237792968751	-1217.958251953125	-444.8052368164064	571.2421875000001	-1122.669189453125	-64.77159881591798	782.094665527344	-802.1889648437502	-183.6502075195313	790.3155517578127	-657.8159790039064	-198.0537567138672	738.8591918945314	-651.5144042968751	-231.0480499267579	765.9448242187501	-608.4485473632814	-295.3937683105469	732.3111572265626	-569.9185180664064	-331.3223266601563	787.8645629882815	-584.1768798828126	-465.7867736816407	617.5068969726564	-733.1989746093751	-450.9672241210939	564.0613403320314	-692.1762695312501	-442.3001403808595	583.5923461914064	-784.993591308594	-430.033905029297	526.5650634765626	-1049.128662109375	-508.9645996093751	643.7503051757814	-949.932067871094	-537.8405761718751	624.4420776367189	-975.2033691406252	-536.6605224609376	624.2179565429689	-919.6927490234377	-413.018280029297	444.0334777832032	-1184.47314453125	-335.8187255859376	473.5402221679689	-1208.330810546875	-321.3772888183594	515.0206298828126	-1188.677856445313	-286.1431579589844	440.0792236328126	-1223.1123046875	-204.3905334472657	419.5076293945314	-1228.186767578125	-170.1780700683594	286.7144470214844	-1200.136962890625	-248.410873413086	266.8834228515626	-1238.319580078125	-212.6592254638672	252.6551513671876	-1218.7900390625	-243.8256530761719	185.0901794433594	-1174.934326171875	-363.6091613769532	95.44149780273439	-1179.914794921875	-327.5043640136719	97.13520050048831	-1099.858154296875	-413.9788818359376	44.21775817871094	-1114.121459960938	-206.3603515625001	57.0989456176758	-1154.179565429688	-215.0283508300782	58.68415832519533	-1194.115966796875	-266.7874145507813	35.00299453735352	-1236.08203125	-467.671112060547	487.9371948242189	-731.2838745117189	-410.8715820312501	511.647186279297	-723.1856079101564	-401.8471679687501	529.7792968750001	-754.6118774414064	-344.5822143554688	483.7431945800782	-687.8251342773439	-205.0539245605469	425.9238586425782	-661.9740600585939	-186.7777404785157	258.5937194824219	-707.7705688476564	-280.4194030761719	208.5634765625001	-668.7851562500001	-241.4661254882813	189.032470703125	-694.3099365234376	-254.9065399169922	150.2252502441407	-734.1201171875001	-354.8118591308594	97.73059082031253	-706.7017211914064	-316.1510925292969	93.73305511474611	-779.0164184570315	-402.1636962890626	44.62040710449219	-770.7998046875002	-200.3845825195313	53.45367813110353	-713.8823242187501	-213.6169738769532	61.22907638549806	-670.1110839843751	-267.1454772949219	41.01930236816407	-634.6108398437501	108.9459915161133	931.6253051757815	-879.4863891601565	nan	nan	nan	
494	2.465	-27.48739051818848	950.7134399414065	-1019.425537109375	-28.16294860839844	948.640563964844	-879.4387817382815	-124.4563140869141	850.245788574219	-944.8212890625002	-377.5249633789063	719.9838256835939	-945.7835083007815	-62.58391571044923	711.6257324218751	-944.0054321289065	-75.40480804443361	784.3460693359377	-1095.904174804688	-190.076171875	727.2641601562501	-1208.43212890625	-224.5355987548829	696.5125732421876	-1192.457397460938	-243.4345703125001	712.3222045898439	-1246.639770507813	-303.9313964843751	723.0941162109376	-1305.787963867188	-350.8374938964844	776.469909667969	-1285.202392578125	-475.3853759765626	594.4535522460939	-1166.369262695313	-464.4000549316407	551.5120239257814	-1217.957885742188	-445.8060302734376	571.3707885742189	-1122.70166015625	-64.9905471801758	782.3662109375002	-802.225036621094	-183.6416778564453	790.0999145507815	-657.7371215820314	-198.0600738525391	738.6843261718751	-651.4301757812501	-230.9458160400391	765.9199829101564	-608.3240966796876	-295.4301147460938	732.1290283203126	-569.8773193359376	-331.1274719238282	787.5835571289065	-584.0132446289064	-465.680145263672	617.2195434570314	-733.0638427734376	-450.9981689453126	563.7799682617189	-692.0195922851564	-442.2122192382814	583.5100708007814	-784.8155517578127	-430.2557983398439	526.4415893554689	-1049.381958007813	-509.0523986816407	643.5627441406251	-949.9683837890627	-537.9863281250001	624.3267822265626	-975.1763916015627	-536.5147094726564	624.0317382812501	-919.577087402344	-413.0259094238282	443.971405029297	-1184.483520507813	-335.7247924804688	473.4880981445314	-1208.282348632813	-321.2953796386719	514.9555053710939	-1188.53515625	-286.0506896972657	440.0592041015626	-1223.02587890625	-204.2972412109376	419.5048217773439	-1228.055908203125	-170.2275085449219	286.7398986816407	-1199.93359375	-248.345687866211	266.8766174316407	-1238.26806640625	-212.6058959960938	252.6465148925782	-1218.7421875	-243.7153320312501	185.1129455566407	-1174.85302734375	-363.5744628906251	95.44823455810548	-1179.91552734375	-327.5515441894532	97.14694976806643	-1099.865966796875	-413.9686889648439	44.22089385986329	-1114.123413085938	-206.3496093750001	57.15194702148439	-1154.169921875	-215.0628509521485	58.70546722412111	-1194.1416015625	-266.7994689941407	34.99845886230469	-1236.0380859375	-467.7265625000001	487.7730102539064	-731.2628784179689	-410.9263916015626	511.4933471679689	-723.2661743164064	-401.9508056640626	529.6896362304689	-754.5887451171876	-344.6280517578126	483.6198120117189	-687.7960205078126	-205.1723785400391	425.9276733398439	-661.9468994140626	-186.7861633300782	258.6125488281251	-707.7702026367189	-280.3976440429688	208.5902252197266	-668.7963867187501	-241.4984893798829	189.0437164306641	-694.3282470703126	-255.0063171386719	150.2398986816407	-734.2501220703126	-354.8304138183594	97.72993469238284	-706.7446899414064	-316.1328735351563	93.73359680175783	-779.0266723632815	-402.0625000000001	44.45471191406251	-770.8488769531252	-200.287094116211	53.4134979248047	-713.8461914062501	-213.5532226562501	61.16627120971681	-670.0866699218751	-267.2131347656251	41.0561752319336	-634.5880737304689	108.905143737793	931.5959472656252	-879.2750244140627	nan	nan	nan	
